<mxfile host="Electron" agent="Mozilla/5.0 (Macintosh; Intel Mac OS X 10_15_7) AppleWebKit/537.36 (KHTML, like Gecko) draw.io/24.7.17 Chrome/128.0.6613.36 Electron/32.0.1 Safari/537.36" version="24.7.17">
  <diagram name="Page-1" id="hQ0IBVJ5jpEcegRt-_B3">
    <mxGraphModel dx="1732" dy="2191" grid="1" gridSize="10" guides="1" tooltips="1" connect="1" arrows="1" fold="1" page="1" pageScale="1" pageWidth="1600" pageHeight="900" math="0" shadow="0">
      <root>
        <mxCell id="0" />
        <mxCell id="1" parent="0" />
        <mxCell id="lNdu0edYDnSajEhI0VVL-20" value="" style="group" parent="1" vertex="1" connectable="0">
          <mxGeometry x="44.16388539042816" y="812.5" width="1460" height="54.5" as="geometry" />
        </mxCell>
        <mxCell id="Uf8WLKuzS3drS_BCJ-BJ-84" value="" style="rounded=0;whiteSpace=wrap;html=1;fillColor=none;dashed=1;" parent="lNdu0edYDnSajEhI0VVL-20" vertex="1">
          <mxGeometry width="1453" height="54.5" as="geometry" />
        </mxCell>
        <mxCell id="Uf8WLKuzS3drS_BCJ-BJ-108" value="" style="group" parent="lNdu0edYDnSajEhI0VVL-20" vertex="1" connectable="0">
          <mxGeometry x="1270" y="7.25" width="190" height="40" as="geometry" />
        </mxCell>
        <mxCell id="Uf8WLKuzS3drS_BCJ-BJ-109" style="edgeStyle=none;curved=1;rounded=0;orthogonalLoop=1;jettySize=auto;html=1;fontSize=12;startSize=8;endSize=8;dashed=1;dashPattern=1 4;strokeWidth=2;endArrow=classic;endFill=0;" parent="Uf8WLKuzS3drS_BCJ-BJ-108" edge="1">
          <mxGeometry relative="1" as="geometry">
            <mxPoint x="84" y="19.5" as="sourcePoint" />
            <mxPoint x="157" y="19.72" as="targetPoint" />
          </mxGeometry>
        </mxCell>
        <mxCell id="Uf8WLKuzS3drS_BCJ-BJ-110" value="&lt;span style=&quot;color: rgb(0, 0, 0); font-family: Helvetica; font-size: 12px; font-style: normal; font-variant-ligatures: normal; font-variant-caps: normal; font-weight: 400; letter-spacing: normal; orphans: 2; text-indent: 0px; text-transform: none; widows: 2; word-spacing: 0px; -webkit-text-stroke-width: 0px; background-color: rgb(251, 251, 251); text-decoration-thickness: initial; text-decoration-style: initial; text-decoration-color: initial; float: none; display: inline !important;&quot;&gt;Graph containment&lt;/span&gt;" style="text;whiteSpace=wrap;html=1;fontSize=16;align=center;" parent="Uf8WLKuzS3drS_BCJ-BJ-108" vertex="1">
          <mxGeometry y="-6" width="70" height="40" as="geometry" />
        </mxCell>
        <mxCell id="Uf8WLKuzS3drS_BCJ-BJ-87" value="" style="group" parent="lNdu0edYDnSajEhI0VVL-20" vertex="1" connectable="0">
          <mxGeometry x="11.5" y="8.6875" width="160" height="37.125" as="geometry" />
        </mxCell>
        <mxCell id="Uf8WLKuzS3drS_BCJ-BJ-88" value="" style="ellipse;whiteSpace=wrap;html=1;fillColor=none;strokeColor=#82b366;strokeWidth=2;" parent="Uf8WLKuzS3drS_BCJ-BJ-87" vertex="1">
          <mxGeometry x="60" y="4.95" width="100" height="28.004625" as="geometry" />
        </mxCell>
        <mxCell id="Uf8WLKuzS3drS_BCJ-BJ-89" value="Class" style="text;html=1;align=center;verticalAlign=middle;resizable=0;points=[];autosize=1;strokeColor=none;fillColor=none;" parent="Uf8WLKuzS3drS_BCJ-BJ-87" vertex="1">
          <mxGeometry width="50" height="30" as="geometry" />
        </mxCell>
        <mxCell id="Uf8WLKuzS3drS_BCJ-BJ-90" value="" style="group" parent="lNdu0edYDnSajEhI0VVL-20" vertex="1" connectable="0">
          <mxGeometry x="188" y="8.6875" width="170" height="37.125" as="geometry" />
        </mxCell>
        <mxCell id="Uf8WLKuzS3drS_BCJ-BJ-91" value="" style="rounded=1;whiteSpace=wrap;html=1;fillColor=none;strokeColor=#330000;strokeWidth=2;" parent="Uf8WLKuzS3drS_BCJ-BJ-90" vertex="1">
          <mxGeometry x="83" y="4.95" width="80" height="23.685750000000002" as="geometry" />
        </mxCell>
        <mxCell id="Uf8WLKuzS3drS_BCJ-BJ-92" value="Property" style="text;html=1;align=center;verticalAlign=middle;resizable=0;points=[];autosize=1;strokeColor=none;fillColor=none;" parent="Uf8WLKuzS3drS_BCJ-BJ-90" vertex="1">
          <mxGeometry width="70" height="30" as="geometry" />
        </mxCell>
        <mxCell id="Uf8WLKuzS3drS_BCJ-BJ-93" value="" style="group" parent="lNdu0edYDnSajEhI0VVL-20" vertex="1" connectable="0">
          <mxGeometry x="552" y="8.6875" width="170" height="37.125" as="geometry" />
        </mxCell>
        <mxCell id="Uf8WLKuzS3drS_BCJ-BJ-94" value="" style="endArrow=classic;html=1;rounded=0;endFill=1;strokeWidth=2;" parent="Uf8WLKuzS3drS_BCJ-BJ-93" edge="1">
          <mxGeometry width="50" height="50" relative="1" as="geometry">
            <mxPoint x="87" y="17.94375" as="sourcePoint" />
            <mxPoint x="167" y="18.5625" as="targetPoint" />
          </mxGeometry>
        </mxCell>
        <mxCell id="Uf8WLKuzS3drS_BCJ-BJ-95" value="Superclass" style="text;html=1;align=center;verticalAlign=middle;resizable=0;points=[];autosize=1;strokeColor=none;fillColor=none;" parent="Uf8WLKuzS3drS_BCJ-BJ-93" vertex="1">
          <mxGeometry x="-5" width="80" height="30" as="geometry" />
        </mxCell>
        <mxCell id="Uf8WLKuzS3drS_BCJ-BJ-96" value="" style="group" parent="lNdu0edYDnSajEhI0VVL-20" vertex="1" connectable="0">
          <mxGeometry x="751" y="8.6875" width="136" height="37.125" as="geometry" />
        </mxCell>
        <mxCell id="Uf8WLKuzS3drS_BCJ-BJ-97" style="edgeStyle=orthogonalEdgeStyle;rounded=0;orthogonalLoop=1;jettySize=auto;html=1;startArrow=none;startFill=0;endArrow=classic;endFill=1;strokeColor=#FF3333;dashed=1;exitX=1;exitY=0.5;exitDx=0;exitDy=0;strokeWidth=2;dashPattern=1 1;" parent="Uf8WLKuzS3drS_BCJ-BJ-96" edge="1">
          <mxGeometry relative="1" as="geometry">
            <mxPoint x="74" y="18.5625" as="sourcePoint" />
            <mxPoint x="154" y="18.5625" as="targetPoint" />
            <Array as="points">
              <mxPoint x="130" y="18.5625" />
              <mxPoint x="130" y="18.5625" />
            </Array>
          </mxGeometry>
        </mxCell>
        <mxCell id="Uf8WLKuzS3drS_BCJ-BJ-98" value="Domain" style="text;html=1;align=center;verticalAlign=middle;resizable=0;points=[];autosize=1;strokeColor=none;fillColor=none;" parent="Uf8WLKuzS3drS_BCJ-BJ-96" vertex="1">
          <mxGeometry width="60" height="30" as="geometry" />
        </mxCell>
        <mxCell id="Uf8WLKuzS3drS_BCJ-BJ-99" value="" style="group" parent="lNdu0edYDnSajEhI0VVL-20" vertex="1" connectable="0">
          <mxGeometry x="921" y="8.6875" width="160" height="37.125" as="geometry" />
        </mxCell>
        <mxCell id="Uf8WLKuzS3drS_BCJ-BJ-100" style="edgeStyle=orthogonalEdgeStyle;rounded=0;orthogonalLoop=1;jettySize=auto;html=1;dashed=1;strokeColor=#0000CC;entryX=0;entryY=0.5;entryDx=0;entryDy=0;strokeWidth=2;" parent="Uf8WLKuzS3drS_BCJ-BJ-99" edge="1">
          <mxGeometry relative="1" as="geometry">
            <mxPoint x="67" y="18.5625" as="sourcePoint" />
            <mxPoint x="147" y="18.5625" as="targetPoint" />
          </mxGeometry>
        </mxCell>
        <mxCell id="Uf8WLKuzS3drS_BCJ-BJ-101" value="Range" style="text;html=1;align=center;verticalAlign=middle;resizable=0;points=[];autosize=1;strokeColor=none;fillColor=none;" parent="Uf8WLKuzS3drS_BCJ-BJ-99" vertex="1">
          <mxGeometry width="60" height="30" as="geometry" />
        </mxCell>
        <mxCell id="Uf8WLKuzS3drS_BCJ-BJ-113" value="" style="group" parent="lNdu0edYDnSajEhI0VVL-20" vertex="1" connectable="0">
          <mxGeometry x="374" y="7.25" width="163.39999999999998" height="40" as="geometry" />
        </mxCell>
        <UserObject label="" id="Uf8WLKuzS3drS_BCJ-BJ-111">
          <mxCell style="shape=hexagon;perimeter=hexagonPerimeter2;whiteSpace=wrap;html=1;fixedSize=1;fontSize=16;fillColor=none;strokeWidth=2;" parent="Uf8WLKuzS3drS_BCJ-BJ-113" vertex="1">
            <mxGeometry x="75" y="11.5" width="88.4" height="17" as="geometry" />
          </mxCell>
        </UserObject>
        <mxCell id="Uf8WLKuzS3drS_BCJ-BJ-112" value="&lt;span style=&quot;color: rgb(0, 0, 0); font-family: Helvetica; font-size: 12px; font-style: normal; font-variant-ligatures: normal; font-variant-caps: normal; font-weight: 400; letter-spacing: normal; orphans: 2; text-align: center; text-indent: 0px; text-transform: none; widows: 2; word-spacing: 0px; -webkit-text-stroke-width: 0px; background-color: rgb(251, 251, 251); text-decoration-thickness: initial; text-decoration-style: initial; text-decoration-color: initial; float: none; display: inline !important;&quot;&gt;Datatype&lt;/span&gt;" style="text;whiteSpace=wrap;html=1;fontSize=16;" parent="Uf8WLKuzS3drS_BCJ-BJ-113" vertex="1">
          <mxGeometry width="90" height="40" as="geometry" />
        </mxCell>
        <mxCell id="lNdu0edYDnSajEhI0VVL-19" value="" style="group" parent="lNdu0edYDnSajEhI0VVL-20" vertex="1" connectable="0">
          <mxGeometry x="1112" y="12.25" width="142" height="30" as="geometry" />
        </mxCell>
        <mxCell id="lNdu0edYDnSajEhI0VVL-17" style="edgeStyle=orthogonalEdgeStyle;rounded=0;orthogonalLoop=1;jettySize=auto;html=1;dashed=1;strokeColor=#006601;entryX=0;entryY=0.5;entryDx=0;entryDy=0;strokeWidth=2;dashPattern=1 4;" parent="lNdu0edYDnSajEhI0VVL-19" edge="1">
          <mxGeometry relative="1" as="geometry">
            <mxPoint x="62" y="18.5625" as="sourcePoint" />
            <mxPoint x="142" y="18.5625" as="targetPoint" />
          </mxGeometry>
        </mxCell>
        <mxCell id="lNdu0edYDnSajEhI0VVL-18" value="Type" style="text;html=1;align=center;verticalAlign=middle;resizable=0;points=[];autosize=1;strokeColor=none;fillColor=none;" parent="lNdu0edYDnSajEhI0VVL-19" vertex="1">
          <mxGeometry width="50" height="30" as="geometry" />
        </mxCell>
        <UserObject label="&lt;i&gt;controller&lt;/i&gt;" link="https://w3id.org/security#controller" id="Uf8WLKuzS3drS_BCJ-BJ-44">
          <mxCell style="rounded=1;whiteSpace=wrap;html=1;fontSize=16;fillColor=none;strokeWidth=2;" parent="1" vertex="1">
            <mxGeometry x="868.003765743073" y="242.53691176470585" width="163.7314231738035" height="32.536500000000004" as="geometry" />
          </mxCell>
        </UserObject>
        <UserObject label="&lt;i&gt;revoked&lt;/i&gt;" link="https://w3id.org/security#revoked" id="Uf8WLKuzS3drS_BCJ-BJ-45">
          <mxCell style="rounded=1;whiteSpace=wrap;html=1;fontSize=16;fillColor=none;strokeWidth=2;" parent="1" vertex="1">
            <mxGeometry x="868.003765743073" y="347.99470588235295" width="163.7314231738035" height="32.536500000000004" as="geometry" />
          </mxCell>
        </UserObject>
        <mxCell id="Uf8WLKuzS3drS_BCJ-BJ-54" value="" style="endArrow=none;html=1;rounded=0;fontSize=12;startSize=8;endSize=8;curved=1;entryX=0;entryY=1;entryDx=0;entryDy=0;dashed=1;strokeWidth=2;strokeColor=#CC0000;endFill=0;startArrow=classic;startFill=1;dashPattern=1 1;exitX=0.5;exitY=0;exitDx=0;exitDy=0;" parent="1" source="Uf8WLKuzS3drS_BCJ-BJ-44" target="Uf8WLKuzS3drS_BCJ-BJ-37" edge="1">
          <mxGeometry width="50" height="50" relative="1" as="geometry">
            <mxPoint x="960" y="230" as="sourcePoint" />
            <mxPoint x="1216.6948992443324" y="336.2258823529412" as="targetPoint" />
            <Array as="points">
              <mxPoint x="1060" y="180" />
            </Array>
          </mxGeometry>
        </mxCell>
        <mxCell id="Uf8WLKuzS3drS_BCJ-BJ-55" value="" style="endArrow=none;html=1;rounded=0;fontSize=12;startSize=8;endSize=8;curved=1;exitX=1;exitY=0.5;exitDx=0;exitDy=0;entryX=0;entryY=1;entryDx=0;entryDy=0;dashed=1;strokeWidth=2;strokeColor=#CC0000;endFill=0;startArrow=classic;startFill=1;dashPattern=1 1;" parent="1" source="Uf8WLKuzS3drS_BCJ-BJ-45" target="Uf8WLKuzS3drS_BCJ-BJ-37" edge="1">
          <mxGeometry width="50" height="50" relative="1" as="geometry">
            <mxPoint x="1509.6879722921913" y="345.7954411764706" as="sourcePoint" />
            <mxPoint x="1331.5941435768261" y="345.7954411764706" as="targetPoint" />
            <Array as="points">
              <mxPoint x="1160" y="180" />
            </Array>
          </mxGeometry>
        </mxCell>
        <UserObject label="&lt;i&gt;Ed25519VerificationKey2020&lt;/i&gt;" link="https://w3id.org/security#Ed25519VerificationKey2020" id="Uf8WLKuzS3drS_BCJ-BJ-56">
          <mxCell style="ellipse;whiteSpace=wrap;html=1;fontSize=16;fillColor=none;strokeWidth=2;strokeColor=#336600;" parent="1" vertex="1">
            <mxGeometry x="1099.67" y="390" width="227.68" height="46.89" as="geometry" />
          </mxCell>
        </UserObject>
        <mxCell id="Uf8WLKuzS3drS_BCJ-BJ-78" value="" style="endArrow=classic;html=1;rounded=0;fontSize=12;startSize=8;endSize=8;curved=1;exitX=0.5;exitY=0;exitDx=0;exitDy=0;strokeWidth=2;entryX=0.5;entryY=1;entryDx=0;entryDy=0;" parent="1" source="Uf8WLKuzS3drS_BCJ-BJ-57" target="Uf8WLKuzS3drS_BCJ-BJ-37" edge="1">
          <mxGeometry width="50" height="50" relative="1" as="geometry">
            <mxPoint x="1088.3907430730478" y="412.7823529411765" as="sourcePoint" />
            <mxPoint x="1250.2071788413098" y="412.81106161764706" as="targetPoint" />
            <Array as="points">
              <mxPoint x="1218" y="300" />
            </Array>
          </mxGeometry>
        </mxCell>
        <mxCell id="Uf8WLKuzS3drS_BCJ-BJ-79" value="" style="endArrow=classic;html=1;rounded=0;fontSize=12;startSize=8;endSize=8;curved=1;exitX=0.5;exitY=0;exitDx=0;exitDy=0;strokeWidth=2;entryX=0.5;entryY=1;entryDx=0;entryDy=0;" parent="1" source="Uf8WLKuzS3drS_BCJ-BJ-56" target="Uf8WLKuzS3drS_BCJ-BJ-37" edge="1">
          <mxGeometry width="50" height="50" relative="1" as="geometry">
            <mxPoint x="1232.0147984886648" y="393.64323529411763" as="sourcePoint" />
            <mxPoint x="1393.8312342569268" y="393.6719439705882" as="targetPoint" />
          </mxGeometry>
        </mxCell>
        <mxCell id="Uf8WLKuzS3drS_BCJ-BJ-80" value="" style="endArrow=classic;html=1;rounded=0;fontSize=12;startSize=8;endSize=8;curved=1;strokeWidth=2;entryX=0.5;entryY=1;entryDx=0;entryDy=0;exitX=0.5;exitY=0;exitDx=0;exitDy=0;" parent="1" source="Uf8WLKuzS3drS_BCJ-BJ-58" target="Uf8WLKuzS3drS_BCJ-BJ-37" edge="1">
          <mxGeometry width="50" height="50" relative="1" as="geometry">
            <mxPoint x="1442.6634130982368" y="431.9214705882353" as="sourcePoint" />
            <mxPoint x="1336.38161209068" y="384.10238514705884" as="targetPoint" />
            <Array as="points">
              <mxPoint x="1209" y="290" />
            </Array>
          </mxGeometry>
        </mxCell>
        <UserObject label="&lt;i&gt;ProofGraph&lt;/i&gt;" link="https://w3id.org/security#ProofGraph" id="Uf8WLKuzS3drS_BCJ-BJ-2">
          <mxCell style="ellipse;whiteSpace=wrap;html=1;fontSize=16;fillColor=none;strokeWidth=2;strokeColor=#336600;" parent="1" vertex="1">
            <mxGeometry x="62.57714105793451" y="163.97382352941176" width="208.7336272040302" height="46.89083823529412" as="geometry" />
          </mxCell>
        </UserObject>
        <mxCell id="Uf8WLKuzS3drS_BCJ-BJ-3" style="edgeStyle=none;curved=1;rounded=0;orthogonalLoop=1;jettySize=auto;html=1;fontSize=12;startSize=8;endSize=8;dashed=1;dashPattern=1 4;strokeWidth=2;exitX=0.5;exitY=0;exitDx=0;exitDy=0;entryX=0;entryY=1;entryDx=0;entryDy=0;endArrow=classic;endFill=0;" parent="1" source="Uf8WLKuzS3drS_BCJ-BJ-2" target="Uf8WLKuzS3drS_BCJ-BJ-1" edge="1">
          <mxGeometry relative="1" as="geometry">
            <mxPoint x="254.07588161209065" y="128.56645588235295" as="sourcePoint" />
            <mxPoint x="464.72449622166243" y="125.69558823529411" as="targetPoint" />
          </mxGeometry>
        </mxCell>
        <UserObject label="&lt;i&gt;proof&lt;/i&gt;" link="https://w3id.org/security#proof" id="Uf8WLKuzS3drS_BCJ-BJ-5">
          <mxCell style="rounded=1;whiteSpace=wrap;html=1;fontSize=16;fillColor=none;strokeWidth=2;" parent="1" vertex="1">
            <mxGeometry x="85.55698992443325" y="317.08676470588233" width="163.7314231738035" height="32.536500000000004" as="geometry" />
          </mxCell>
        </UserObject>
        <mxCell id="Uf8WLKuzS3drS_BCJ-BJ-6" value="" style="endArrow=classic;html=1;rounded=0;fontSize=12;startSize=8;endSize=8;curved=1;entryX=0.5;entryY=1;entryDx=0;entryDy=0;exitX=0.5;exitY=0;exitDx=0;exitDy=0;strokeColor=#000099;dashed=1;strokeWidth=2;" parent="1" source="Uf8WLKuzS3drS_BCJ-BJ-5" target="Uf8WLKuzS3drS_BCJ-BJ-2" edge="1">
          <mxGeometry width="50" height="50" relative="1" as="geometry">
            <mxPoint x="301.9505667506297" y="259.8580448593747" as="sourcePoint" />
            <mxPoint x="415.8923173803526" y="259.8580448593747" as="targetPoint" />
          </mxGeometry>
        </mxCell>
        <UserObject label="&lt;i&gt;domain&lt;/i&gt;" link="https://w3id.org/security#domain" id="Uf8WLKuzS3drS_BCJ-BJ-7">
          <mxCell style="rounded=1;whiteSpace=wrap;html=1;fontSize=16;fillColor=none;strokeWidth=2;" parent="1" vertex="1">
            <mxGeometry x="555.3489294710328" y="210" width="163.7314231738035" height="32.536500000000004" as="geometry" />
          </mxCell>
        </UserObject>
        <UserObject label="&lt;i&gt;challenge&lt;/i&gt;" link="https://w3id.org/security#challenge" id="Uf8WLKuzS3drS_BCJ-BJ-8">
          <mxCell style="rounded=1;whiteSpace=wrap;html=1;fontSize=16;fillColor=none;strokeWidth=2;" parent="1" vertex="1">
            <mxGeometry x="555.3489294710328" y="268" width="163.7314231738035" height="32.536500000000004" as="geometry" />
          </mxCell>
        </UserObject>
        <UserObject label="&lt;i&gt;previousProof&lt;/i&gt;" link="https://w3id.org/security#previousProof" id="Uf8WLKuzS3drS_BCJ-BJ-9">
          <mxCell style="rounded=1;whiteSpace=wrap;html=1;fontSize=16;fillColor=none;strokeWidth=2;" parent="1" vertex="1">
            <mxGeometry x="555.3489294710328" y="152.9125" width="163.7314231738035" height="32.536500000000004" as="geometry" />
          </mxCell>
        </UserObject>
        <UserObject label="&lt;i&gt;proofPurpose&lt;br&gt;&lt;/i&gt;" link="https://w3id.org/security#proofPurpose" id="Uf8WLKuzS3drS_BCJ-BJ-10">
          <mxCell style="rounded=1;whiteSpace=wrap;html=1;fontSize=16;fillColor=none;strokeWidth=2;" parent="1" vertex="1">
            <mxGeometry x="469.99892947103274" y="-166.45999999999998" width="163.7314231738035" height="32.536500000000004" as="geometry" />
          </mxCell>
        </UserObject>
        <UserObject label="&lt;i&gt;proofValue&lt;/i&gt;" link="https://w3id.org/security#proofValue" id="Uf8WLKuzS3drS_BCJ-BJ-11">
          <mxCell style="rounded=1;whiteSpace=wrap;html=1;fontSize=16;fillColor=none;strokeWidth=2;" parent="1" vertex="1">
            <mxGeometry x="555.3489294710328" y="440.29808823529413" width="163.7314231738035" height="32.536500000000004" as="geometry" />
          </mxCell>
        </UserObject>
        <UserObject label="&lt;i&gt;expiration&lt;/i&gt;" link="https://w3id.org/security#expiration" id="Uf8WLKuzS3drS_BCJ-BJ-12">
          <mxCell style="rounded=1;whiteSpace=wrap;html=1;fontSize=16;fillColor=none;strokeWidth=2;" parent="1" vertex="1">
            <mxGeometry x="867.9989294710327" y="300.54" width="163.7314231738035" height="32.536500000000004" as="geometry" />
          </mxCell>
        </UserObject>
        <UserObject label="&lt;i&gt;nonce&lt;/i&gt;" link="https://w3id.org/security#nonce" id="Uf8WLKuzS3drS_BCJ-BJ-13">
          <mxCell style="rounded=1;whiteSpace=wrap;html=1;fontSize=16;fillColor=none;strokeWidth=2;" parent="1" vertex="1">
            <mxGeometry x="555.3489294710328" y="325" width="163.7314231738035" height="32.536500000000004" as="geometry" />
          </mxCell>
        </UserObject>
        <UserObject label="&lt;i&gt;created&lt;/i&gt;" link="https://w3id.org/security#created" id="Uf8WLKuzS3drS_BCJ-BJ-14">
          <mxCell style="rounded=1;whiteSpace=wrap;html=1;fontSize=16;fillColor=none;strokeWidth=2;" parent="1" vertex="1">
            <mxGeometry x="555.3489294710328" y="383" width="163.7314231738035" height="32.536500000000004" as="geometry" />
          </mxCell>
        </UserObject>
        <mxCell id="Uf8WLKuzS3drS_BCJ-BJ-15" value="" style="endArrow=none;html=1;rounded=0;fontSize=12;startSize=8;endSize=8;curved=1;exitX=0;exitY=0.5;exitDx=0;exitDy=0;entryX=1;entryY=1;entryDx=0;entryDy=0;dashed=1;strokeWidth=2;strokeColor=#CC0000;endFill=0;startArrow=classic;startFill=1;dashPattern=1 1;" parent="1" source="Uf8WLKuzS3drS_BCJ-BJ-7" target="Uf8WLKuzS3drS_BCJ-BJ-1" edge="1">
          <mxGeometry width="50" height="50" relative="1" as="geometry">
            <mxPoint x="441.7446473551637" y="163.97382352941176" as="sourcePoint" />
            <mxPoint x="263.65081863979844" y="163.97382352941176" as="targetPoint" />
            <Array as="points" />
          </mxGeometry>
        </mxCell>
        <mxCell id="Uf8WLKuzS3drS_BCJ-BJ-16" value="" style="endArrow=none;html=1;rounded=0;fontSize=12;startSize=8;endSize=8;curved=1;exitX=0;exitY=0.5;exitDx=0;exitDy=0;dashed=1;strokeWidth=2;strokeColor=#CC0000;endFill=0;startArrow=classic;startFill=1;dashPattern=1 1;entryX=1;entryY=1;entryDx=0;entryDy=0;" parent="1" source="Uf8WLKuzS3drS_BCJ-BJ-8" target="Uf8WLKuzS3drS_BCJ-BJ-1" edge="1">
          <mxGeometry width="50" height="50" relative="1" as="geometry">
            <mxPoint x="493.44930730478586" y="122.8247205882353" as="sourcePoint" />
            <mxPoint x="330.6753778337531" y="106.5564705882353" as="targetPoint" />
            <Array as="points">
              <mxPoint x="460" y="150" />
            </Array>
          </mxGeometry>
        </mxCell>
        <mxCell id="Uf8WLKuzS3drS_BCJ-BJ-17" value="" style="endArrow=none;html=1;rounded=0;fontSize=12;startSize=8;endSize=8;curved=1;exitX=0;exitY=0.5;exitDx=0;exitDy=0;entryX=1;entryY=1;entryDx=0;entryDy=0;dashed=1;strokeWidth=2;strokeColor=#CC0000;endFill=0;startArrow=classic;startFill=1;dashPattern=1 1;" parent="1" source="Uf8WLKuzS3drS_BCJ-BJ-9" target="Uf8WLKuzS3drS_BCJ-BJ-1" edge="1">
          <mxGeometry width="50" height="50" relative="1" as="geometry">
            <mxPoint x="480.04439546599497" y="183.1129411764706" as="sourcePoint" />
            <mxPoint x="301.9505667506297" y="183.1129411764706" as="targetPoint" />
            <Array as="points" />
          </mxGeometry>
        </mxCell>
        <mxCell id="Uf8WLKuzS3drS_BCJ-BJ-18" value="" style="endArrow=none;html=1;rounded=0;fontSize=12;startSize=8;endSize=8;curved=1;exitX=0.5;exitY=1;exitDx=0;exitDy=0;entryX=1;entryY=0;entryDx=0;entryDy=0;dashed=1;strokeWidth=2;strokeColor=#CC0000;endFill=0;startArrow=classic;startFill=1;dashPattern=1 1;" parent="1" source="Uf8WLKuzS3drS_BCJ-BJ-10" target="Uf8WLKuzS3drS_BCJ-BJ-1" edge="1">
          <mxGeometry width="50" height="50" relative="1" as="geometry">
            <mxPoint x="503.0242443324937" y="132.3942794117647" as="sourcePoint" />
            <mxPoint x="358.44269521410575" y="96.02995588235294" as="targetPoint" />
            <Array as="points">
              <mxPoint x="500" y="-40" />
            </Array>
          </mxGeometry>
        </mxCell>
        <mxCell id="Uf8WLKuzS3drS_BCJ-BJ-19" value="" style="endArrow=none;html=1;rounded=0;fontSize=12;startSize=8;endSize=8;curved=1;exitX=0;exitY=0.5;exitDx=0;exitDy=0;entryX=1;entryY=1;entryDx=0;entryDy=0;dashed=1;strokeWidth=2;strokeColor=#CC0000;endFill=0;startArrow=classic;startFill=1;dashPattern=1 1;" parent="1" source="Uf8WLKuzS3drS_BCJ-BJ-11" target="Uf8WLKuzS3drS_BCJ-BJ-1" edge="1">
          <mxGeometry width="50" height="50" relative="1" as="geometry">
            <mxPoint x="422.5947732997481" y="259.6694117647059" as="sourcePoint" />
            <mxPoint x="244.50094458438286" y="259.6694117647059" as="targetPoint" />
            <Array as="points">
              <mxPoint x="408" y="260" />
            </Array>
          </mxGeometry>
        </mxCell>
        <mxCell id="Uf8WLKuzS3drS_BCJ-BJ-20" value="" style="endArrow=none;html=1;rounded=0;fontSize=12;startSize=8;endSize=8;curved=1;exitX=0;exitY=0.5;exitDx=0;exitDy=0;entryX=1;entryY=0;entryDx=0;entryDy=0;dashed=1;strokeWidth=2;strokeColor=#CC0000;endFill=0;startArrow=classic;startFill=1;dashPattern=1 1;" parent="1" source="Uf8WLKuzS3drS_BCJ-BJ-12" target="Uf8WLKuzS3drS_BCJ-BJ-1" edge="1">
          <mxGeometry width="50" height="50" relative="1" as="geometry">
            <mxPoint x="868.3089294710326" y="227.1282500000002" as="sourcePoint" />
            <mxPoint x="413.9768556909135" y="69.89352290842726" as="targetPoint" />
            <Array as="points">
              <mxPoint x="790" y="70" />
            </Array>
          </mxGeometry>
        </mxCell>
        <mxCell id="Uf8WLKuzS3drS_BCJ-BJ-21" value="" style="endArrow=none;html=1;rounded=0;fontSize=12;startSize=8;endSize=8;curved=1;entryX=1;entryY=1;entryDx=0;entryDy=0;dashed=1;strokeWidth=2;strokeColor=#CC0000;endFill=0;startArrow=classic;startFill=1;dashPattern=1 1;exitX=0;exitY=0.5;exitDx=0;exitDy=0;" parent="1" source="Uf8WLKuzS3drS_BCJ-BJ-13" target="Uf8WLKuzS3drS_BCJ-BJ-1" edge="1">
          <mxGeometry width="50" height="50" relative="1" as="geometry">
            <mxPoint x="541.3239924433249" y="403.21279411764704" as="sourcePoint" />
            <mxPoint x="273.2257556675063" y="269.2389705882353" as="targetPoint" />
            <Array as="points">
              <mxPoint x="470" y="250" />
            </Array>
          </mxGeometry>
        </mxCell>
        <mxCell id="Uf8WLKuzS3drS_BCJ-BJ-22" value="" style="endArrow=none;html=1;rounded=0;fontSize=12;startSize=8;endSize=8;curved=1;exitX=0;exitY=0.5;exitDx=0;exitDy=0;entryX=1;entryY=1;entryDx=0;entryDy=0;dashed=1;strokeWidth=2;strokeColor=#CC0000;endFill=0;startArrow=classic;startFill=1;dashPattern=1 1;" parent="1" source="Uf8WLKuzS3drS_BCJ-BJ-14" target="Uf8WLKuzS3drS_BCJ-BJ-1" edge="1">
          <mxGeometry width="50" height="50" relative="1" as="geometry">
            <mxPoint x="441.7446473551637" y="288.3780882352941" as="sourcePoint" />
            <mxPoint x="263.65081863979844" y="288.3780882352941" as="targetPoint" />
            <Array as="points">
              <mxPoint x="450" y="290" />
            </Array>
          </mxGeometry>
        </mxCell>
        <UserObject label="&lt;i&gt;DataIntegrityProof&lt;/i&gt;" link="https://w3id.org/security#DataIntegrityProof" id="Uf8WLKuzS3drS_BCJ-BJ-23">
          <mxCell style="ellipse;whiteSpace=wrap;html=1;fontSize=16;fillColor=none;strokeWidth=2;strokeColor=#336600;" parent="1" vertex="1">
            <mxGeometry x="234.92600755667502" y="460.6301470588235" width="208.7336272040302" height="46.89083823529412" as="geometry" />
          </mxCell>
        </UserObject>
        <UserObject label="&lt;i&gt;Ed25519Signature2020&lt;/i&gt;" link="https://w3id.org/security#Ed25519Signature2020" id="Uf8WLKuzS3drS_BCJ-BJ-24">
          <mxCell style="ellipse;whiteSpace=wrap;html=1;fontSize=16;fillColor=none;strokeWidth=2;strokeColor=#336600;" parent="1" vertex="1">
            <mxGeometry x="8" y="460.6301470588235" width="208.7336272040302" height="46.89083823529412" as="geometry" />
          </mxCell>
        </UserObject>
        <mxCell id="Uf8WLKuzS3drS_BCJ-BJ-25" value="" style="endArrow=classic;html=1;rounded=0;fontSize=12;startSize=8;endSize=8;curved=1;exitX=0.5;exitY=0;exitDx=0;exitDy=0;strokeWidth=2;entryX=0.5;entryY=1;entryDx=0;entryDy=0;" parent="1" source="Uf8WLKuzS3drS_BCJ-BJ-23" target="Uf8WLKuzS3drS_BCJ-BJ-1" edge="1">
          <mxGeometry width="50" height="50" relative="1" as="geometry">
            <mxPoint x="690.6930100755667" y="441.4910294117647" as="sourcePoint" />
            <mxPoint x="852.5094458438286" y="441.5197380882353" as="targetPoint" />
          </mxGeometry>
        </mxCell>
        <mxCell id="Uf8WLKuzS3drS_BCJ-BJ-26" value="" style="endArrow=classic;html=1;rounded=0;fontSize=12;startSize=8;endSize=8;curved=1;exitX=0.83;exitY=0.122;exitDx=0;exitDy=0;strokeWidth=2;exitPerimeter=0;entryX=0.5;entryY=1;entryDx=0;entryDy=0;" parent="1" source="Uf8WLKuzS3drS_BCJ-BJ-24" target="Uf8WLKuzS3drS_BCJ-BJ-1" edge="1">
          <mxGeometry width="50" height="50" relative="1" as="geometry">
            <mxPoint x="709.8428841309824" y="585.034411764706" as="sourcePoint" />
            <mxPoint x="871.6593198992443" y="585.0631204411765" as="targetPoint" />
            <Array as="points">
              <mxPoint x="336.42034005037783" y="326.6563235294118" />
            </Array>
          </mxGeometry>
        </mxCell>
        <UserObject label="&lt;i&gt;cryptosuite&lt;/i&gt;" link="https://w3id.org/security#cryptosuite" id="Uf8WLKuzS3drS_BCJ-BJ-27">
          <mxCell style="rounded=1;whiteSpace=wrap;html=1;fontSize=16;fillColor=none;strokeWidth=2;" parent="1" vertex="1">
            <mxGeometry x="257.90585642317376" y="559.1966029411765" width="163.7314231738035" height="32.536500000000004" as="geometry" />
          </mxCell>
        </UserObject>
        <UserObject label="cryptosuiteString" link="https://w3id.org/security#cryptosuiteString" id="Uf8WLKuzS3drS_BCJ-BJ-29">
          <mxCell style="shape=hexagon;perimeter=hexagonPerimeter2;whiteSpace=wrap;html=1;fixedSize=1;fontSize=16;fillColor=none;strokeWidth=2;" parent="1" vertex="1">
            <mxGeometry x="264.60831234256926" y="652.0213235294117" width="149.3690176322418" height="28.708676470588237" as="geometry" />
          </mxCell>
        </UserObject>
        <mxCell id="Uf8WLKuzS3drS_BCJ-BJ-30" style="edgeStyle=none;curved=1;rounded=0;orthogonalLoop=1;jettySize=auto;html=1;exitX=0.5;exitY=1;exitDx=0;exitDy=0;fontSize=12;startSize=8;endSize=8;" parent="1" source="Uf8WLKuzS3drS_BCJ-BJ-29" target="Uf8WLKuzS3drS_BCJ-BJ-29" edge="1">
          <mxGeometry relative="1" as="geometry" />
        </mxCell>
        <mxCell id="Uf8WLKuzS3drS_BCJ-BJ-31" value="" style="endArrow=none;html=1;rounded=0;fontSize=12;startSize=8;endSize=8;curved=1;exitX=0.5;exitY=0;exitDx=0;exitDy=0;entryX=0.5;entryY=1;entryDx=0;entryDy=0;dashed=1;strokeWidth=2;strokeColor=#CC0000;endFill=0;startArrow=classic;startFill=1;dashPattern=1 1;" parent="1" source="Uf8WLKuzS3drS_BCJ-BJ-27" target="Uf8WLKuzS3drS_BCJ-BJ-23" edge="1">
          <mxGeometry width="50" height="50" relative="1" as="geometry">
            <mxPoint x="677.2880982367758" y="546.7561764705882" as="sourcePoint" />
            <mxPoint x="499.19426952141055" y="546.7561764705882" as="targetPoint" />
          </mxGeometry>
        </mxCell>
        <mxCell id="Uf8WLKuzS3drS_BCJ-BJ-32" value="" style="endArrow=classic;html=1;rounded=0;fontSize=12;startSize=8;endSize=8;curved=1;entryX=0.5;entryY=0;entryDx=0;entryDy=0;exitX=0.5;exitY=1;exitDx=0;exitDy=0;strokeColor=#000099;dashed=1;strokeWidth=2;" parent="1" source="Uf8WLKuzS3drS_BCJ-BJ-27" target="Uf8WLKuzS3drS_BCJ-BJ-29" edge="1">
          <mxGeometry width="50" height="50" relative="1" as="geometry">
            <mxPoint x="547.0689546599496" y="566.0839272123158" as="sourcePoint" />
            <mxPoint x="661.0107052896725" y="566.0839272123158" as="targetPoint" />
          </mxGeometry>
        </mxCell>
        <UserObject label="multibase" link="https://w3id.org/security#multibase" id="aMvtbWUda6Bs1y7FLRK9-2">
          <mxCell style="shape=hexagon;perimeter=hexagonPerimeter2;whiteSpace=wrap;html=1;fixedSize=1;fontSize=16;fillColor=none;strokeWidth=2;" parent="1" vertex="1">
            <mxGeometry x="710.1783123425694" y="652.0213235294117" width="149.3690176322418" height="28.708676470588237" as="geometry" />
          </mxCell>
        </UserObject>
        <mxCell id="aMvtbWUda6Bs1y7FLRK9-4" value="" style="endArrow=classic;html=1;rounded=0;fontSize=12;startSize=8;endSize=8;entryX=0.5;entryY=0;entryDx=0;entryDy=0;exitX=1;exitY=0.5;exitDx=0;exitDy=0;strokeColor=#000099;dashed=1;strokeWidth=2;edgeStyle=orthogonalEdgeStyle;curved=1;" parent="1" source="Uf8WLKuzS3drS_BCJ-BJ-11" target="aMvtbWUda6Bs1y7FLRK9-2" edge="1">
          <mxGeometry width="50" height="50" relative="1" as="geometry">
            <mxPoint x="568" y="610.1971178589811" as="sourcePoint" />
            <mxPoint x="687" y="610.1971178589811" as="targetPoint" />
          </mxGeometry>
        </mxCell>
        <UserObject label="&lt;i&gt;Multikey&lt;/i&gt;" link="https://w3id.org/security#Multikey" id="Uf8WLKuzS3drS_BCJ-BJ-58">
          <mxCell style="ellipse;whiteSpace=wrap;html=1;fontSize=16;fillColor=none;strokeWidth=2;strokeColor=#336600;" parent="1" vertex="1">
            <mxGeometry x="919.5030667506297" y="450.00014705882353" width="208.7336272040302" height="46.89083823529412" as="geometry" />
          </mxCell>
        </UserObject>
        <mxCell id="Uf8WLKuzS3drS_BCJ-BJ-72" value="" style="group" parent="1" vertex="1" connectable="0">
          <mxGeometry x="851.9997607052896" y="559.1966029411765" width="343.7402392947103" height="32.5365" as="geometry" />
        </mxCell>
        <UserObject label="&lt;i&gt;publicKeyMultibase&lt;/i&gt;" link="https://w3id.org/security#publicKeyMultibase" id="Uf8WLKuzS3drS_BCJ-BJ-60">
          <mxCell style="rounded=1;whiteSpace=wrap;html=1;fontSize=16;fillColor=none;strokeWidth=2;" parent="Uf8WLKuzS3drS_BCJ-BJ-72" vertex="1">
            <mxGeometry x="185.7537783375315" width="163.7314231738035" height="32.5365" as="geometry" />
          </mxCell>
        </UserObject>
        <UserObject label="&lt;i&gt;secretKeyMultibase&lt;/i&gt;" link="https://w3id.org/security#secretKeyMultibase" id="Uf8WLKuzS3drS_BCJ-BJ-61">
          <mxCell style="rounded=1;whiteSpace=wrap;html=1;fontSize=16;fillColor=none;strokeWidth=2;" parent="Uf8WLKuzS3drS_BCJ-BJ-72" vertex="1">
            <mxGeometry x="-4.787468513853904" width="163.7314231738035" height="32.5365" as="geometry" />
          </mxCell>
        </UserObject>
        <mxCell id="Uf8WLKuzS3drS_BCJ-BJ-73" value="" style="endArrow=none;html=1;rounded=0;fontSize=12;startSize=8;endSize=8;curved=1;exitX=0.5;exitY=0;exitDx=0;exitDy=0;entryX=0.5;entryY=1;entryDx=0;entryDy=0;dashed=1;strokeWidth=2;strokeColor=#CC0000;endFill=0;startArrow=classic;startFill=1;dashPattern=1 1;" parent="1" source="Uf8WLKuzS3drS_BCJ-BJ-61" target="Uf8WLKuzS3drS_BCJ-BJ-58" edge="1">
          <mxGeometry width="50" height="50" relative="1" as="geometry">
            <mxPoint x="1080.0309319899243" y="717.947794117647" as="sourcePoint" />
            <mxPoint x="901.9371032745591" y="717.947794117647" as="targetPoint" />
          </mxGeometry>
        </mxCell>
        <mxCell id="Uf8WLKuzS3drS_BCJ-BJ-74" value="" style="endArrow=none;html=1;rounded=0;fontSize=12;startSize=8;endSize=8;curved=1;exitX=0.5;exitY=0;exitDx=0;exitDy=0;entryX=0.5;entryY=1;entryDx=0;entryDy=0;dashed=1;strokeWidth=2;strokeColor=#CC0000;endFill=0;startArrow=classic;startFill=1;dashPattern=1 1;" parent="1" source="Uf8WLKuzS3drS_BCJ-BJ-60" target="Uf8WLKuzS3drS_BCJ-BJ-58" edge="1">
          <mxGeometry width="50" height="50" relative="1" as="geometry">
            <mxPoint x="1118.3306801007557" y="698.8086764705882" as="sourcePoint" />
            <mxPoint x="940.2368513853904" y="698.8086764705882" as="targetPoint" />
          </mxGeometry>
        </mxCell>
        <UserObject label="&lt;i&gt;JsonWebKey&lt;/i&gt;" link="https://w3id.org/security#JsonWebKey" id="Uf8WLKuzS3drS_BCJ-BJ-57">
          <mxCell style="ellipse;whiteSpace=wrap;html=1;fontSize=16;fillColor=none;strokeWidth=2;strokeColor=#336600;" parent="1" vertex="1">
            <mxGeometry x="1306.248016372796" y="450.00014705882353" width="208.7336272040302" height="46.89083823529412" as="geometry" />
          </mxCell>
        </UserObject>
        <UserObject label="rdf:JSON" id="Uf8WLKuzS3drS_BCJ-BJ-64">
          <mxCell style="shape=hexagon;perimeter=hexagonPerimeter2;whiteSpace=wrap;html=1;fixedSize=1;fontSize=16;fillColor=none;strokeWidth=2;" parent="1" vertex="1">
            <mxGeometry x="1335.93032115869" y="652.0213235294117" width="149.3690176322418" height="28.70867647058824" as="geometry" />
          </mxCell>
        </UserObject>
        <mxCell id="Uf8WLKuzS3drS_BCJ-BJ-65" value="" style="group" parent="1" vertex="1" connectable="0">
          <mxGeometry x="1232.9997481108312" y="559.1966029411765" width="355.2301637279597" height="32.536500000000004" as="geometry" />
        </mxCell>
        <UserObject label="&lt;i&gt;secretKeyJwk&lt;/i&gt;" link="https://w3id.org/security#secretKeyJwk" id="Uf8WLKuzS3drS_BCJ-BJ-62">
          <mxCell style="rounded=1;whiteSpace=wrap;html=1;fontSize=16;fillColor=none;strokeWidth=2;" parent="Uf8WLKuzS3drS_BCJ-BJ-65" vertex="1">
            <mxGeometry width="163.7314231738035" height="32.536500000000004" as="geometry" />
          </mxCell>
        </UserObject>
        <UserObject label="&lt;i&gt;publicKeyJwk&lt;/i&gt;" link="https://w3id.org/security#publicKeyJwk" id="Uf8WLKuzS3drS_BCJ-BJ-63">
          <mxCell style="rounded=1;whiteSpace=wrap;html=1;fontSize=16;fillColor=none;strokeWidth=2;" parent="Uf8WLKuzS3drS_BCJ-BJ-65" vertex="1">
            <mxGeometry x="191.49874055415614" width="163.7314231738035" height="32.536500000000004" as="geometry" />
          </mxCell>
        </UserObject>
        <mxCell id="Uf8WLKuzS3drS_BCJ-BJ-66" value="" style="endArrow=none;html=1;rounded=0;fontSize=12;startSize=8;endSize=8;curved=1;exitX=0.5;exitY=0;exitDx=0;exitDy=0;entryX=0.5;entryY=1;entryDx=0;entryDy=0;dashed=1;strokeWidth=2;strokeColor=#CC0000;endFill=0;startArrow=classic;startFill=1;dashPattern=1 1;" parent="1" source="Uf8WLKuzS3drS_BCJ-BJ-62" target="Uf8WLKuzS3drS_BCJ-BJ-57" edge="1">
          <mxGeometry width="50" height="50" relative="1" as="geometry">
            <mxPoint x="1325.8229534005038" y="727.5173529411766" as="sourcePoint" />
            <mxPoint x="1147.7291246851385" y="727.5173529411766" as="targetPoint" />
          </mxGeometry>
        </mxCell>
        <mxCell id="Uf8WLKuzS3drS_BCJ-BJ-67" value="" style="endArrow=none;html=1;rounded=0;fontSize=12;startSize=8;endSize=8;curved=1;exitX=0.5;exitY=0;exitDx=0;exitDy=0;entryX=0.5;entryY=1;entryDx=0;entryDy=0;dashed=1;strokeWidth=2;strokeColor=#CC0000;endFill=0;startArrow=classic;startFill=1;dashPattern=1 1;" parent="1" source="Uf8WLKuzS3drS_BCJ-BJ-63" target="Uf8WLKuzS3drS_BCJ-BJ-57" edge="1">
          <mxGeometry width="50" height="50" relative="1" as="geometry">
            <mxPoint x="1421.5723236775818" y="746.6564705882354" as="sourcePoint" />
            <mxPoint x="1243.4784949622167" y="746.6564705882354" as="targetPoint" />
          </mxGeometry>
        </mxCell>
        <mxCell id="Uf8WLKuzS3drS_BCJ-BJ-68" value="" style="endArrow=classic;html=1;rounded=0;fontSize=12;startSize=8;endSize=8;curved=1;entryX=0.5;entryY=0;entryDx=0;entryDy=0;exitX=0.5;exitY=1;exitDx=0;exitDy=0;strokeColor=#000099;dashed=1;strokeWidth=2;" parent="1" source="Uf8WLKuzS3drS_BCJ-BJ-62" target="Uf8WLKuzS3drS_BCJ-BJ-64" edge="1">
          <mxGeometry width="50" height="50" relative="1" as="geometry">
            <mxPoint x="1243.4784949622167" y="746.8451036829041" as="sourcePoint" />
            <mxPoint x="1357.4202455919394" y="746.8451036829041" as="targetPoint" />
          </mxGeometry>
        </mxCell>
        <mxCell id="Uf8WLKuzS3drS_BCJ-BJ-69" value="" style="endArrow=classic;html=1;rounded=0;fontSize=12;startSize=8;endSize=8;curved=1;entryX=0.5;entryY=0;entryDx=0;entryDy=0;exitX=0.5;exitY=1;exitDx=0;exitDy=0;strokeColor=#000099;dashed=1;strokeWidth=2;" parent="1" source="Uf8WLKuzS3drS_BCJ-BJ-63" target="Uf8WLKuzS3drS_BCJ-BJ-64" edge="1">
          <mxGeometry width="50" height="50" relative="1" as="geometry">
            <mxPoint x="1262.6283690176322" y="727.7059860358453" as="sourcePoint" />
            <mxPoint x="1376.570119647355" y="727.7059860358453" as="targetPoint" />
          </mxGeometry>
        </mxCell>
        <mxCell id="nVRavBy3A-u7qQ1nN919-1" value="" style="endArrow=classic;html=1;rounded=0;fontSize=12;startSize=8;endSize=8;curved=1;entryX=1;entryY=0.5;entryDx=0;entryDy=0;exitX=0.5;exitY=1;exitDx=0;exitDy=0;strokeColor=#000099;dashed=1;strokeWidth=2;" parent="1" source="Uf8WLKuzS3drS_BCJ-BJ-61" target="aMvtbWUda6Bs1y7FLRK9-2" edge="1">
          <mxGeometry width="50" height="50" relative="1" as="geometry">
            <mxPoint x="808" y="470.1971178589811" as="sourcePoint" />
            <mxPoint x="927" y="470.1971178589811" as="targetPoint" />
            <Array as="points">
              <mxPoint x="918" y="640" />
            </Array>
          </mxGeometry>
        </mxCell>
        <mxCell id="nVRavBy3A-u7qQ1nN919-3" value="" style="endArrow=classic;html=1;rounded=0;fontSize=12;startSize=8;endSize=8;curved=1;entryX=1;entryY=0.5;entryDx=0;entryDy=0;exitX=0.5;exitY=1;exitDx=0;exitDy=0;strokeColor=#000099;dashed=1;strokeWidth=2;" parent="1" source="Uf8WLKuzS3drS_BCJ-BJ-60" target="aMvtbWUda6Bs1y7FLRK9-2" edge="1">
          <mxGeometry width="50" height="50" relative="1" as="geometry">
            <mxPoint x="958" y="660.1971178589811" as="sourcePoint" />
            <mxPoint x="1077" y="660.1971178589811" as="targetPoint" />
            <Array as="points">
              <mxPoint x="1048" y="650" />
            </Array>
          </mxGeometry>
        </mxCell>
        <UserObject label="&lt;i&gt;digestMultibase&lt;/i&gt;" link="https://w3id.org/security#digestMultibase" id="0YF8A2KC1bUMDjYDby_S-1">
          <mxCell style="rounded=1;whiteSpace=wrap;html=1;fontSize=16;fillColor=none;strokeWidth=2;" parent="1" vertex="1">
            <mxGeometry x="546.4489294710328" y="559.1966029411765" width="163.7314231738035" height="32.536500000000004" as="geometry" />
          </mxCell>
        </UserObject>
        <mxCell id="0YF8A2KC1bUMDjYDby_S-2" value="" style="endArrow=classic;html=1;rounded=0;fontSize=12;startSize=8;endSize=8;entryX=0;entryY=0.5;entryDx=0;entryDy=0;exitX=0.5;exitY=1;exitDx=0;exitDy=0;strokeColor=#000099;dashed=1;strokeWidth=2;edgeStyle=orthogonalEdgeStyle;curved=1;" parent="1" source="0YF8A2KC1bUMDjYDby_S-1" target="aMvtbWUda6Bs1y7FLRK9-2" edge="1">
          <mxGeometry width="50" height="50" relative="1" as="geometry">
            <mxPoint x="468" y="507.52" as="sourcePoint" />
            <mxPoint x="534" y="720.52" as="targetPoint" />
          </mxGeometry>
        </mxCell>
        <mxCell id="0YF8A2KC1bUMDjYDby_S-3" value="" style="endArrow=none;html=1;rounded=0;fontSize=12;startSize=8;endSize=8;curved=1;exitX=1;exitY=0.5;exitDx=0;exitDy=0;entryX=0;entryY=1;entryDx=0;entryDy=0;dashed=1;strokeWidth=2;strokeColor=#CC0000;endFill=0;startArrow=classic;startFill=1;dashPattern=1 1;" parent="1" source="Uf8WLKuzS3drS_BCJ-BJ-12" target="Uf8WLKuzS3drS_BCJ-BJ-37" edge="1">
          <mxGeometry width="50" height="50" relative="1" as="geometry">
            <mxPoint x="915.74" y="281.15" as="sourcePoint" />
            <mxPoint x="1018.74" y="15.150000000000006" as="targetPoint" />
            <Array as="points">
              <mxPoint x="1120" y="180" />
            </Array>
          </mxGeometry>
        </mxCell>
        <UserObject label="&lt;i&gt;VerificationRelationship&lt;/i&gt;" link="https://w3id.org/security#VerificationRelationship" id="lNdu0edYDnSajEhI0VVL-1">
          <mxCell style="ellipse;whiteSpace=wrap;html=1;fontSize=16;fillColor=none;strokeWidth=2;strokeColor=#336600;" parent="1" vertex="1">
            <mxGeometry x="669.7970717884131" y="-400" width="208.7336272040302" height="46.89083823529412" as="geometry" />
          </mxCell>
        </UserObject>
        <mxCell id="lNdu0edYDnSajEhI0VVL-4" value="" style="endArrow=classic;html=1;rounded=0;fontSize=12;startSize=8;endSize=8;curved=1;entryX=0;entryY=1;entryDx=0;entryDy=0;exitX=0.5;exitY=0;exitDx=0;exitDy=0;strokeColor=#000099;dashed=1;strokeWidth=2;" parent="1" source="Uf8WLKuzS3drS_BCJ-BJ-10" target="lNdu0edYDnSajEhI0VVL-1" edge="1">
          <mxGeometry width="50" height="50" relative="1" as="geometry">
            <mxPoint x="1710" y="-100" as="sourcePoint" />
            <mxPoint x="1450" y="-15" as="targetPoint" />
          </mxGeometry>
        </mxCell>
        <mxCell id="lNdu0edYDnSajEhI0VVL-6" value="" style="endArrow=classic;html=1;rounded=0;fontSize=12;startSize=8;endSize=8;curved=1;entryX=1;entryY=0.5;entryDx=0;entryDy=0;exitX=0.5;exitY=0;exitDx=0;exitDy=0;strokeColor=#000099;dashed=1;strokeWidth=2;" parent="1" source="Uf8WLKuzS3drS_BCJ-BJ-9" target="Uf8WLKuzS3drS_BCJ-BJ-1" edge="1">
          <mxGeometry width="50" height="50" relative="1" as="geometry">
            <mxPoint x="750" y="-140" as="sourcePoint" />
            <mxPoint x="490" y="-55" as="targetPoint" />
            <Array as="points">
              <mxPoint x="570" y="60" />
            </Array>
          </mxGeometry>
        </mxCell>
        <mxCell id="lNdu0edYDnSajEhI0VVL-9" value="" style="endArrow=classic;html=1;rounded=0;fontSize=12;startSize=8;endSize=8;curved=1;entryX=1;entryY=1;entryDx=0;entryDy=0;exitX=0;exitY=0.5;exitDx=0;exitDy=0;strokeColor=#006601;dashed=1;strokeWidth=2;dashPattern=1 4;" parent="1" source="Uf8WLKuzS3drS_BCJ-BJ-38" target="lNdu0edYDnSajEhI0VVL-1" edge="1">
          <mxGeometry width="50" height="50" relative="1" as="geometry">
            <mxPoint x="1940" y="404" as="sourcePoint" />
            <mxPoint x="1680" y="489" as="targetPoint" />
          </mxGeometry>
        </mxCell>
        <mxCell id="lNdu0edYDnSajEhI0VVL-10" value="" style="endArrow=classic;html=1;rounded=0;fontSize=12;startSize=8;endSize=8;curved=1;entryX=1;entryY=1;entryDx=0;entryDy=0;strokeColor=#006601;dashed=1;strokeWidth=2;dashPattern=1 4;exitX=0;exitY=0.5;exitDx=0;exitDy=0;" parent="1" source="Uf8WLKuzS3drS_BCJ-BJ-39" target="lNdu0edYDnSajEhI0VVL-1" edge="1">
          <mxGeometry width="50" height="50" relative="1" as="geometry">
            <mxPoint x="1600" y="150" as="sourcePoint" />
            <mxPoint x="1924" y="87" as="targetPoint" />
          </mxGeometry>
        </mxCell>
        <mxCell id="lNdu0edYDnSajEhI0VVL-11" value="" style="endArrow=classic;html=1;rounded=0;fontSize=12;startSize=8;endSize=8;curved=1;entryX=1;entryY=1;entryDx=0;entryDy=0;exitX=0;exitY=0.5;exitDx=0;exitDy=0;strokeColor=#006601;dashed=1;strokeWidth=2;dashPattern=1 4;" parent="1" source="Uf8WLKuzS3drS_BCJ-BJ-40" target="lNdu0edYDnSajEhI0VVL-1" edge="1">
          <mxGeometry width="50" height="50" relative="1" as="geometry">
            <mxPoint x="1610" y="126" as="sourcePoint" />
            <mxPoint x="1934" y="97" as="targetPoint" />
          </mxGeometry>
        </mxCell>
        <mxCell id="lNdu0edYDnSajEhI0VVL-12" value="" style="endArrow=classic;html=1;rounded=0;fontSize=12;startSize=8;endSize=8;curved=1;entryX=1;entryY=1;entryDx=0;entryDy=0;exitX=0;exitY=0.5;exitDx=0;exitDy=0;strokeColor=#006601;dashed=1;strokeWidth=2;dashPattern=1 4;" parent="1" source="Uf8WLKuzS3drS_BCJ-BJ-41" target="lNdu0edYDnSajEhI0VVL-1" edge="1">
          <mxGeometry width="50" height="50" relative="1" as="geometry">
            <mxPoint x="1620" y="136" as="sourcePoint" />
            <mxPoint x="1944" y="107" as="targetPoint" />
          </mxGeometry>
        </mxCell>
        <mxCell id="lNdu0edYDnSajEhI0VVL-13" value="" style="endArrow=classic;html=1;rounded=0;fontSize=12;startSize=8;endSize=8;curved=1;entryX=1;entryY=1;entryDx=0;entryDy=0;exitX=0;exitY=0.5;exitDx=0;exitDy=0;strokeColor=#006601;dashed=1;strokeWidth=2;dashPattern=1 4;" parent="1" source="Uf8WLKuzS3drS_BCJ-BJ-42" target="lNdu0edYDnSajEhI0VVL-1" edge="1">
          <mxGeometry width="50" height="50" relative="1" as="geometry">
            <mxPoint x="1630" y="146" as="sourcePoint" />
            <mxPoint x="1954" y="117" as="targetPoint" />
          </mxGeometry>
        </mxCell>
        <mxCell id="lNdu0edYDnSajEhI0VVL-14" value="" style="endArrow=classic;html=1;rounded=0;fontSize=12;startSize=8;endSize=8;curved=1;entryX=1;entryY=1;entryDx=0;entryDy=0;exitX=0;exitY=0.5;exitDx=0;exitDy=0;strokeColor=#006601;dashed=1;strokeWidth=2;dashPattern=1 4;" parent="1" source="Uf8WLKuzS3drS_BCJ-BJ-43" target="lNdu0edYDnSajEhI0VVL-1" edge="1">
          <mxGeometry width="50" height="50" relative="1" as="geometry">
            <mxPoint x="1640" y="156" as="sourcePoint" />
            <mxPoint x="1964" y="127" as="targetPoint" />
          </mxGeometry>
        </mxCell>
        <mxCell id="0IjuMSqVGh2S3PIIxEyC-2" value="" style="group" parent="1" vertex="1" connectable="0">
          <mxGeometry x="1104.034949622166" y="-320" width="210" height="271.78000000000003" as="geometry" />
        </mxCell>
        <UserObject label="&lt;i&gt;verificationMethod&lt;/i&gt;" link="https://w3id.org/security#verificationMethod" id="Uf8WLKuzS3drS_BCJ-BJ-38">
          <mxCell style="rounded=1;whiteSpace=wrap;html=1;fontSize=16;fillColor=none;strokeWidth=2;" parent="0IjuMSqVGh2S3PIIxEyC-2" vertex="1">
            <mxGeometry width="210" height="32.54" as="geometry" />
          </mxCell>
        </UserObject>
        <UserObject label="&lt;i&gt;authentication&lt;/i&gt;" link="https://w3id.org/security#authentication" id="Uf8WLKuzS3drS_BCJ-BJ-39">
          <mxCell style="rounded=1;whiteSpace=wrap;html=1;fontSize=16;fillColor=none;strokeWidth=2;" parent="0IjuMSqVGh2S3PIIxEyC-2" vertex="1">
            <mxGeometry y="47.84000000000003" width="210" height="32.54" as="geometry" />
          </mxCell>
        </UserObject>
        <UserObject label="&lt;i&gt;assertionMethod&lt;/i&gt;" link="https://w3id.org/security#assertionMethod" id="Uf8WLKuzS3drS_BCJ-BJ-40">
          <mxCell style="rounded=1;whiteSpace=wrap;html=1;fontSize=16;fillColor=none;strokeWidth=2;" parent="0IjuMSqVGh2S3PIIxEyC-2" vertex="1">
            <mxGeometry y="95.69" width="210" height="32.54" as="geometry" />
          </mxCell>
        </UserObject>
        <UserObject label="&lt;i&gt;capabilityDelegationMethod&lt;/i&gt;" link="https://w3id.org/security#capabilityDelegationMethod" id="Uf8WLKuzS3drS_BCJ-BJ-41">
          <mxCell style="rounded=1;whiteSpace=wrap;html=1;fontSize=16;fillColor=none;strokeWidth=2;" parent="0IjuMSqVGh2S3PIIxEyC-2" vertex="1">
            <mxGeometry y="143.54000000000002" width="210" height="32.54" as="geometry" />
          </mxCell>
        </UserObject>
        <UserObject label="&lt;i&gt;capabilityInvocationMethod&lt;br&gt;&lt;/i&gt;" link="https://w3id.org/security#capabilityInvocationMethod" id="Uf8WLKuzS3drS_BCJ-BJ-42">
          <mxCell style="rounded=1;whiteSpace=wrap;html=1;fontSize=16;fillColor=none;strokeWidth=2;" parent="0IjuMSqVGh2S3PIIxEyC-2" vertex="1">
            <mxGeometry y="191.39" width="210" height="32.54" as="geometry" />
          </mxCell>
        </UserObject>
        <UserObject label="&lt;i&gt;keyAgreementMethod&lt;/i&gt;" link="https://w3id.org/security#keyAgreementMethod" id="Uf8WLKuzS3drS_BCJ-BJ-43">
          <mxCell style="rounded=1;whiteSpace=wrap;html=1;fontSize=16;fillColor=none;strokeWidth=2;" parent="0IjuMSqVGh2S3PIIxEyC-2" vertex="1">
            <mxGeometry y="239.24" width="210" height="32.54" as="geometry" />
          </mxCell>
        </UserObject>
        <mxCell id="0IjuMSqVGh2S3PIIxEyC-3" value="" style="endArrow=classic;html=1;rounded=0;fontSize=12;startSize=8;endSize=8;curved=1;entryX=1;entryY=0.5;entryDx=0;entryDy=0;exitX=1;exitY=0.5;exitDx=0;exitDy=0;strokeColor=#000099;dashed=1;strokeWidth=2;" parent="1" source="Uf8WLKuzS3drS_BCJ-BJ-43" target="Uf8WLKuzS3drS_BCJ-BJ-37" edge="1">
          <mxGeometry width="50" height="50" relative="1" as="geometry">
            <mxPoint x="1600" y="70" as="sourcePoint" />
            <mxPoint x="1340" y="144" as="targetPoint" />
            <Array as="points">
              <mxPoint x="1370" y="20" />
            </Array>
          </mxGeometry>
        </mxCell>
        <mxCell id="0IjuMSqVGh2S3PIIxEyC-4" value="" style="endArrow=classic;html=1;rounded=0;fontSize=12;startSize=8;endSize=8;curved=1;entryX=1;entryY=0.5;entryDx=0;entryDy=0;exitX=1;exitY=0.5;exitDx=0;exitDy=0;strokeColor=#000099;dashed=1;strokeWidth=2;" parent="1" source="Uf8WLKuzS3drS_BCJ-BJ-42" target="Uf8WLKuzS3drS_BCJ-BJ-37" edge="1">
          <mxGeometry width="50" height="50" relative="1" as="geometry">
            <mxPoint x="1383.11" y="-48.22" as="sourcePoint" />
            <mxPoint x="1382.11" y="68.78" as="targetPoint" />
            <Array as="points">
              <mxPoint x="1410" y="20" />
            </Array>
          </mxGeometry>
        </mxCell>
        <mxCell id="0IjuMSqVGh2S3PIIxEyC-5" value="" style="endArrow=classic;html=1;rounded=0;fontSize=12;startSize=8;endSize=8;curved=1;entryX=1;entryY=0.5;entryDx=0;entryDy=0;exitX=1;exitY=0.5;exitDx=0;exitDy=0;strokeColor=#000099;dashed=1;strokeWidth=2;" parent="1" source="Uf8WLKuzS3drS_BCJ-BJ-41" target="Uf8WLKuzS3drS_BCJ-BJ-37" edge="1">
          <mxGeometry width="50" height="50" relative="1" as="geometry">
            <mxPoint x="1371" y="-133.92000000000002" as="sourcePoint" />
            <mxPoint x="1370" y="31.08" as="targetPoint" />
            <Array as="points">
              <mxPoint x="1460" y="10" />
            </Array>
          </mxGeometry>
        </mxCell>
        <mxCell id="0IjuMSqVGh2S3PIIxEyC-6" value="" style="endArrow=classic;html=1;rounded=0;fontSize=12;startSize=8;endSize=8;curved=1;entryX=1;entryY=0.5;entryDx=0;entryDy=0;exitX=1;exitY=0.5;exitDx=0;exitDy=0;strokeColor=#000099;dashed=1;strokeWidth=2;" parent="1" source="Uf8WLKuzS3drS_BCJ-BJ-40" target="Uf8WLKuzS3drS_BCJ-BJ-37" edge="1">
          <mxGeometry width="50" height="50" relative="1" as="geometry">
            <mxPoint x="1381" y="-166.46" as="sourcePoint" />
            <mxPoint x="1380" y="46.54" as="targetPoint" />
            <Array as="points">
              <mxPoint x="1510" />
            </Array>
          </mxGeometry>
        </mxCell>
        <mxCell id="0IjuMSqVGh2S3PIIxEyC-7" value="" style="endArrow=classic;html=1;rounded=0;fontSize=12;startSize=8;endSize=8;curved=1;entryX=1;entryY=0.5;entryDx=0;entryDy=0;exitX=1;exitY=0.5;exitDx=0;exitDy=0;strokeColor=#000099;dashed=1;strokeWidth=2;" parent="1" source="Uf8WLKuzS3drS_BCJ-BJ-39" target="Uf8WLKuzS3drS_BCJ-BJ-37" edge="1">
          <mxGeometry width="50" height="50" relative="1" as="geometry">
            <mxPoint x="1334" y="-140" as="sourcePoint" />
            <mxPoint x="1333" y="73" as="targetPoint" />
            <Array as="points">
              <mxPoint x="1430" y="-160" />
              <mxPoint x="1470" y="10" />
            </Array>
          </mxGeometry>
        </mxCell>
        <mxCell id="0IjuMSqVGh2S3PIIxEyC-8" value="" style="endArrow=classic;html=1;rounded=0;fontSize=12;startSize=8;endSize=8;curved=1;entryX=1;entryY=0.5;entryDx=0;entryDy=0;strokeColor=#000099;dashed=1;strokeWidth=2;exitX=1;exitY=0.5;exitDx=0;exitDy=0;" parent="1" source="Uf8WLKuzS3drS_BCJ-BJ-38" target="Uf8WLKuzS3drS_BCJ-BJ-37" edge="1">
          <mxGeometry width="50" height="50" relative="1" as="geometry">
            <mxPoint x="1324" y="-300" as="sourcePoint" />
            <mxPoint x="1323" y="63" as="targetPoint" />
            <Array as="points">
              <mxPoint x="1490" y="-170" />
              <mxPoint x="1490" y="20" />
            </Array>
          </mxGeometry>
        </mxCell>
        <UserObject label="&lt;i&gt;VerificationMethod&lt;/i&gt;" link="https://w3id.org/security#VerificationMethod" id="Uf8WLKuzS3drS_BCJ-BJ-37">
          <mxCell style="ellipse;whiteSpace=wrap;html=1;fontSize=16;fillColor=none;strokeWidth=2;strokeColor=#336600;" parent="1" vertex="1">
            <mxGeometry x="1104.668136020151" y="30" width="208.7336272040302" height="46.89083823529412" as="geometry" />
          </mxCell>
        </UserObject>
        <UserObject label="&lt;i&gt;Proof&lt;/i&gt;" link="https://w3id.org/security#Proof" id="Uf8WLKuzS3drS_BCJ-BJ-1">
          <mxCell style="ellipse;whiteSpace=wrap;html=1;fontSize=16;fillColor=none;strokeWidth=2;strokeColor=#336600;pointer-events=&quot;all&quot;" parent="1" vertex="1">
            <mxGeometry x="234.92600755667502" y="30" width="208.7336272040302" height="46.89083823529412" as="geometry" />
          </mxCell>
        </UserObject>
        <UserObject label="&lt;i&gt;verificationMethod&lt;/i&gt;" link="https://w3id.org/security#verificationMethod" id="0IjuMSqVGh2S3PIIxEyC-11">
          <mxCell style="rounded=1;whiteSpace=wrap;html=1;fontSize=16;fillColor=none;strokeWidth=2;" parent="1" vertex="1">
            <mxGeometry x="1359.9989294710326" y="214.46" width="163.7314231738035" height="32.536500000000004" as="geometry" />
          </mxCell>
        </UserObject>
        <mxCell id="0IjuMSqVGh2S3PIIxEyC-12" value="" style="endArrow=classic;html=1;rounded=0;fontSize=12;startSize=8;endSize=8;curved=1;entryX=1;entryY=1;entryDx=0;entryDy=0;exitX=0.5;exitY=0;exitDx=0;exitDy=0;strokeColor=#000099;dashed=1;strokeWidth=2;" parent="1" source="0IjuMSqVGh2S3PIIxEyC-11" target="Uf8WLKuzS3drS_BCJ-BJ-37" edge="1">
          <mxGeometry width="50" height="50" relative="1" as="geometry">
            <mxPoint x="1070" y="89.97000000000003" as="sourcePoint" />
            <mxPoint x="810" y="163.97000000000003" as="targetPoint" />
          </mxGeometry>
        </mxCell>
        <UserObject label="&lt;i&gt;ControllerDocument&lt;/i&gt;" link="https://w3id.org/security#ControllerDocument" id="EKtz_mp9gxkMvZtS7m4M-1">
          <mxCell style="ellipse;whiteSpace=wrap;html=1;fontSize=16;fillColor=none;strokeWidth=2;strokeColor=#336600;" vertex="1" parent="1">
            <mxGeometry x="779.9981360201509" y="30" width="208.7336272040302" height="46.89083823529412" as="geometry" />
          </mxCell>
        </UserObject>
        <mxCell id="EKtz_mp9gxkMvZtS7m4M-2" value="" style="endArrow=none;html=1;rounded=0;fontSize=12;startSize=8;endSize=8;curved=1;exitX=0.5;exitY=0;exitDx=0;exitDy=0;entryX=0.5;entryY=1;entryDx=0;entryDy=0;dashed=1;strokeWidth=2;strokeColor=#CC0000;endFill=0;startArrow=classic;startFill=1;dashPattern=1 1;" edge="1" parent="1" source="Uf8WLKuzS3drS_BCJ-BJ-44" target="EKtz_mp9gxkMvZtS7m4M-1">
          <mxGeometry width="50" height="50" relative="1" as="geometry">
            <mxPoint x="919.5" y="179" as="sourcePoint" />
            <mxPoint x="1022.5" y="-10" as="targetPoint" />
            <Array as="points">
              <mxPoint x="900" y="130" />
            </Array>
          </mxGeometry>
        </mxCell>
      </root>
    </mxGraphModel>
  </diagram>
</mxfile>
